<?xml version="1.0" encoding="utf-8"?>
<!-- Generator: Adobe Illustrator 25.0.1, SVG Export Plug-In . SVG Version: 6.00 Build 0)  -->
<svg version="1.1" id="fullcolor" xmlns="http://www.w3.org/2000/svg" xmlns:xlink="http://www.w3.org/1999/xlink" x="0px" y="0px"
	 viewBox="0 0 275.2 58" style="enable-background:new 0 0 275.2 58;" xml:space="preserve">
<style type="text/css">
	.st0{fill:#FFFFFF;}
</style>
<g>
	<g>
		<path class="st0" d="M24.9,20.7V11H0v9.7h5.5v16.6H0V47h24.9v-9.7h-5.5V20.7H24.9z"/>
	</g>
	<rect x="42.9" class="st0" width="1.1" height="58"/>
	<g>
		<path class="st0" d="M62.6,7.7h2.5l2.8,5.3l1,2.4H69c-0.1-1.1-0.3-2.6-0.3-3.9V7.7H71v10.7h-2.5l-2.8-5.3l-1-2.3h-0.1
			c0.1,1.2,0.3,2.6,0.3,3.9v3.8h-2.3V7.7z"/>
		<path class="st0" d="M72.9,16.2c0-1.7,1.4-2.6,4.6-3c0-0.7-0.4-1.2-1.3-1.2c-0.7,0-1.4,0.3-2.1,0.7l-0.9-1.6
			c1-0.6,2.2-1.1,3.5-1.1c2.1,0,3.2,1.2,3.2,3.7v4.7h-2l-0.2-0.8h-0.1c-0.7,0.6-1.4,1-2.4,1C73.8,18.6,72.9,17.5,72.9,16.2z
			 M77.5,16.1v-1.4c-1.7,0.2-2.3,0.7-2.3,1.3c0,0.5,0.4,0.8,0.9,0.8C76.7,16.8,77.1,16.5,77.5,16.1z"/>
		<path class="st0" d="M82.1,15.5v-3.3H81v-1.8l1.2-0.1l0.3-2.2h2v2.2h2v1.9h-2v3.3c0,0.9,0.4,1.3,1,1.3c0.3,0,0.6-0.1,0.8-0.2
			l0.4,1.8c-0.4,0.1-1,0.3-1.8,0.3C82.9,18.6,82.1,17.4,82.1,15.5z"/>
		<path class="st0" d="M87.9,7.8c0-0.7,0.6-1.2,1.4-1.2c0.8,0,1.4,0.5,1.4,1.2s-0.6,1.3-1.4,1.3C88.5,9.1,87.9,8.6,87.9,7.8z
			 M88.1,10.3h2.4v8.1h-2.4V10.3z"/>
		<path class="st0" d="M92.1,14.4c0-2.7,1.9-4.3,4-4.3c2,0,4,1.6,4,4.3c0,2.7-1.9,4.3-4,4.3C94,18.6,92.1,17.1,92.1,14.4z
			 M97.5,14.4c0-1.4-0.5-2.3-1.5-2.3c-1,0-1.5,0.9-1.5,2.3c0,1.4,0.5,2.3,1.5,2.3C97,16.7,97.5,15.8,97.5,14.4z"/>
		<path class="st0" d="M101.6,10.3h2l0.2,1h0.1c0.7-0.7,1.5-1.2,2.6-1.2c1.8,0,2.5,1.2,2.5,3.3v5.1h-2.4v-4.7c0-1.2-0.3-1.5-1-1.5
			c-0.6,0-1,0.3-1.5,0.8v5.5h-2.4V10.3z"/>
		<path class="st0" d="M110.5,16.2c0-1.7,1.4-2.6,4.6-3c0-0.7-0.4-1.2-1.3-1.2c-0.7,0-1.4,0.3-2.1,0.7l-0.9-1.6
			c1-0.6,2.2-1.1,3.5-1.1c2.1,0,3.2,1.2,3.2,3.7v4.7h-2l-0.2-0.8h-0.1c-0.7,0.6-1.4,1-2.4,1C111.5,18.6,110.5,17.5,110.5,16.2z
			 M115.1,16.1v-1.4c-1.7,0.2-2.3,0.7-2.3,1.3c0,0.5,0.4,0.8,0.9,0.8C114.3,16.8,114.7,16.5,115.1,16.1z"/>
		<path class="st0" d="M119.5,15.9v-9h2.4V16c0,0.5,0.2,0.7,0.4,0.7c0.1,0,0.2,0,0.3,0l0.3,1.8c-0.3,0.1-0.7,0.2-1.2,0.2
			C120,18.6,119.5,17.5,119.5,15.9z"/>
		<path class="st0" d="M127.1,13.1c0-3.5,2.3-5.6,5.1-5.6c1.4,0,2.5,0.7,3.2,1.4l-1.3,1.5c-0.5-0.5-1.1-0.9-1.9-0.9
			c-1.5,0-2.6,1.3-2.6,3.4c0,2.2,1,3.5,2.6,3.5c0.9,0,1.6-0.4,2.1-1l1.3,1.5c-0.9,1-2.1,1.6-3.5,1.6
			C129.4,18.6,127.1,16.7,127.1,13.1z"/>
		<path class="st0" d="M136.4,14.4c0-2.6,1.9-4.3,3.8-4.3c2.3,0,3.5,1.7,3.5,3.9c0,0.4,0,0.9-0.1,1.1h-4.9c0.2,1.2,1,1.7,2.1,1.7
			c0.6,0,1.2-0.2,1.8-0.5l0.8,1.5c-0.8,0.6-1.9,0.9-2.9,0.9C138.2,18.6,136.4,17,136.4,14.4z M141.6,13.5c0-0.9-0.4-1.5-1.4-1.5
			c-0.8,0-1.4,0.5-1.6,1.5H141.6z"/>
		<path class="st0" d="M145.4,10.3h2l0.2,1h0.1c0.7-0.7,1.5-1.2,2.6-1.2c1.8,0,2.5,1.2,2.5,3.3v5.1h-2.4v-4.7c0-1.2-0.3-1.5-1-1.5
			c-0.6,0-1,0.3-1.5,0.8v5.5h-2.4V10.3z"/>
		<path class="st0" d="M155,15.5v-3.3h-1.1v-1.8l1.2-0.1l0.3-2.2h2v2.2h2v1.9h-2v3.3c0,0.9,0.4,1.3,1,1.3c0.3,0,0.6-0.1,0.8-0.2
			l0.4,1.8c-0.4,0.1-1,0.3-1.8,0.3C155.8,18.6,155,17.4,155,15.5z"/>
		<path class="st0" d="M160.4,14.4c0-2.6,1.9-4.3,3.8-4.3c2.3,0,3.5,1.7,3.5,3.9c0,0.4,0,0.9-0.1,1.1h-4.9c0.2,1.2,1,1.7,2.1,1.7
			c0.6,0,1.2-0.2,1.8-0.5l0.8,1.5c-0.8,0.6-1.9,0.9-2.9,0.9C162.1,18.6,160.4,17,160.4,14.4z M165.6,13.5c0-0.9-0.4-1.5-1.4-1.5
			c-0.8,0-1.4,0.5-1.6,1.5H165.6z"/>
		<path class="st0" d="M169.3,10.3h2l0.2,1.4h0.1c0.6-1.1,1.5-1.6,2.3-1.6c0.5,0,0.7,0.1,1,0.2l-0.4,2.1c-0.3-0.1-0.5-0.1-0.9-0.1
			c-0.6,0-1.4,0.4-1.8,1.5v4.7h-2.4V10.3z"/>
		<path class="st0" d="M179.6,12.2h-1.1v-1.8l1.1-0.1V9.9c0-1.7,0.8-3.1,3-3.1c0.7,0,1.3,0.2,1.6,0.3l-0.4,1.8
			c-0.3-0.1-0.6-0.2-0.8-0.2c-0.6,0-0.9,0.3-0.9,1.2v0.5h1.5v1.9H182v6.2h-2.4V12.2z"/>
		<path class="st0" d="M184.2,14.4c0-2.7,1.9-4.3,4-4.3c2,0,4,1.6,4,4.3c0,2.7-1.9,4.3-4,4.3C186.1,18.6,184.2,17.1,184.2,14.4z
			 M189.7,14.4c0-1.4-0.5-2.3-1.5-2.3c-1,0-1.5,0.9-1.5,2.3c0,1.4,0.5,2.3,1.5,2.3C189.2,16.7,189.7,15.8,189.7,14.4z"/>
		<path class="st0" d="M193.7,10.3h2l0.2,1.4h0.1c0.6-1.1,1.5-1.6,2.3-1.6c0.5,0,0.7,0.1,1,0.2l-0.4,2.1c-0.3-0.1-0.5-0.1-0.9-0.1
			c-0.6,0-1.4,0.4-1.8,1.5v4.7h-2.4V10.3z"/>
		<path class="st0" d="M62.3,33.7l1.4-1.7c0.8,0.7,1.8,1.1,2.6,1.1c1,0,1.5-0.4,1.5-1c0-0.7-0.6-0.9-1.5-1.3l-1.4-0.6
			c-1.1-0.4-2.1-1.4-2.1-2.9c0-1.8,1.6-3.2,3.8-3.2c1.2,0,2.5,0.5,3.4,1.4l-1.2,1.5c-0.7-0.5-1.4-0.9-2.2-0.9c-0.8,0-1.4,0.4-1.4,1
			c0,0.7,0.7,0.9,1.6,1.3l1.4,0.6c1.3,0.5,2.1,1.4,2.1,2.9c0,1.8-1.5,3.3-4,3.3C64.9,35.3,63.4,34.7,62.3,33.7z"/>
		<path class="st0" d="M71.8,32v-5.1h2.4v4.7c0,1.2,0.3,1.5,1,1.5c0.6,0,1-0.3,1.4-0.9v-5.4h2.4v8.1h-2l-0.2-1.1h0
			c-0.7,0.8-1.4,1.3-2.6,1.3C72.6,35.3,71.8,34,71.8,32z"/>
		<path class="st0" d="M81.2,26.9h2l0.2,0.8h0.1c0.6-0.6,1.5-1,2.3-1c2,0,3.2,1.6,3.2,4.1c0,2.8-1.7,4.4-3.4,4.4
			c-0.7,0-1.4-0.3-1.9-0.9l0.1,1.3v2.4h-2.4V26.9z M86.4,30.9c0-1.5-0.4-2.2-1.4-2.2c-0.5,0-0.9,0.2-1.4,0.7v3.3
			c0.4,0.4,0.9,0.5,1.3,0.5C85.7,33.3,86.4,32.6,86.4,30.9z"/>
		<path class="st0" d="M90.1,31c0-2.6,1.9-4.3,3.8-4.3c2.3,0,3.5,1.7,3.5,3.9c0,0.4,0,0.9-0.1,1.1h-4.9c0.2,1.2,1,1.7,2.1,1.7
			c0.6,0,1.2-0.2,1.8-0.5l0.8,1.5c-0.8,0.6-1.9,0.9-2.9,0.9C91.9,35.3,90.1,33.7,90.1,31z M95.3,30.1c0-0.9-0.4-1.5-1.4-1.5
			c-0.8,0-1.4,0.5-1.6,1.5H95.3z"/>
		<path class="st0" d="M99,26.9h2l0.2,1.4h0.1c0.6-1.1,1.5-1.6,2.3-1.6c0.5,0,0.7,0.1,1,0.2l-0.4,2.1c-0.3-0.1-0.5-0.1-0.9-0.1
			c-0.6,0-1.4,0.4-1.8,1.5v4.7H99V26.9z"/>
		<path class="st0" d="M105,31c0-2.7,2-4.3,4.2-4.3c1,0,1.8,0.4,2.4,0.9l-1.1,1.6c-0.4-0.3-0.7-0.5-1.1-0.5c-1.2,0-1.9,0.9-1.9,2.3
			c0,1.4,0.8,2.3,1.8,2.3c0.5,0,1-0.3,1.5-0.6l1,1.6c-0.8,0.7-1.8,1-2.7,1C106.8,35.3,105,33.7,105,31z"/>
		<path class="st0" d="M112.4,31c0-2.7,1.9-4.3,4-4.3c2,0,4,1.6,4,4.3c0,2.7-1.9,4.3-4,4.3C114.3,35.3,112.4,33.7,112.4,31z
			 M117.9,31c0-1.4-0.5-2.3-1.5-2.3c-1,0-1.5,0.9-1.5,2.3c0,1.4,0.5,2.3,1.5,2.3C117.4,33.3,117.9,32.4,117.9,31z"/>
		<path class="st0" d="M121.9,26.9h2l0.2,1h0.1c0.7-0.7,1.4-1.2,2.5-1.2c1.1,0,1.8,0.5,2.2,1.4c0.7-0.7,1.5-1.4,2.6-1.4
			c1.8,0,2.5,1.2,2.5,3.3v5.1h-2.4v-4.7c0-1.2-0.3-1.5-1-1.5c-0.4,0-0.9,0.3-1.4,0.8v5.5h-2.4v-4.7c0-1.2-0.3-1.5-1-1.5
			c-0.4,0-0.9,0.3-1.4,0.8v5.5h-2.4V26.9z"/>
		<path class="st0" d="M136,26.9h2l0.2,0.8h0.1c0.6-0.6,1.5-1,2.3-1c2,0,3.2,1.6,3.2,4.1c0,2.8-1.7,4.4-3.4,4.4
			c-0.7,0-1.4-0.3-1.9-0.9l0.1,1.3v2.4H136V26.9z M141.2,30.9c0-1.5-0.4-2.2-1.4-2.2c-0.5,0-0.9,0.2-1.4,0.7v3.3
			c0.4,0.4,0.9,0.5,1.3,0.5C140.5,33.3,141.2,32.6,141.2,30.9z"/>
		<path class="st0" d="M145.3,32v-5.1h2.4v4.7c0,1.2,0.3,1.5,1,1.5c0.6,0,1-0.3,1.4-0.9v-5.4h2.4v8.1h-2l-0.2-1.1h0
			c-0.7,0.8-1.4,1.3-2.6,1.3C146,35.3,145.3,34,145.3,32z"/>
		<path class="st0" d="M155,32.1v-3.3h-1.1V27l1.2-0.1l0.3-2.2h2v2.2h2v1.9h-2v3.3c0,0.9,0.4,1.3,1,1.3c0.3,0,0.6-0.1,0.8-0.2
			l0.4,1.8c-0.4,0.1-1,0.3-1.8,0.3C155.8,35.3,155,34,155,32.1z"/>
		<path class="st0" d="M160.8,24.5c0-0.7,0.6-1.2,1.4-1.2c0.8,0,1.4,0.5,1.4,1.2s-0.6,1.3-1.4,1.3C161.4,25.7,160.8,25.2,160.8,24.5
			z M161,26.9h2.4v8.1H161V26.9z"/>
		<path class="st0" d="M165.4,26.9h2l0.2,1h0.1c0.7-0.7,1.5-1.2,2.6-1.2c1.8,0,2.5,1.2,2.5,3.3v5.1h-2.4v-4.7c0-1.2-0.3-1.5-1-1.5
			c-0.6,0-1,0.3-1.5,0.8v5.5h-2.4V26.9z"/>
		<path class="st0" d="M174.2,36.5c0-0.7,0.4-1.2,1.2-1.6v-0.1c-0.4-0.3-0.8-0.7-0.8-1.4c0-0.6,0.4-1.2,0.9-1.5v-0.1
			c-0.6-0.4-1.1-1.2-1.1-2.1c0-2,1.6-2.9,3.4-2.9c0.5,0,0.9,0.1,1.3,0.2h3v1.8h-1.3c0.1,0.2,0.3,0.6,0.3,1.1c0,1.9-1.4,2.7-3.2,2.7
			c-0.3,0-0.6,0-1-0.2c-0.2,0.2-0.3,0.3-0.3,0.6c0,0.4,0.3,0.6,1.2,0.6h1.3c2,0,3.1,0.6,3.1,2.1c0,1.7-1.8,2.9-4.5,2.9
			C175.7,38.5,174.2,37.9,174.2,36.5z M179.9,36c0-0.5-0.4-0.6-1.2-0.6h-0.8c-0.6,0-0.9,0-1.1-0.1c-0.3,0.3-0.4,0.5-0.4,0.8
			c0,0.6,0.7,0.9,1.8,0.9C179.1,37,179.9,36.6,179.9,36z M178.9,29.7c0-0.9-0.5-1.3-1.1-1.3s-1.1,0.4-1.1,1.3c0,0.9,0.5,1.4,1.1,1.4
			S178.9,30.6,178.9,29.7z"/>
		<path class="st0" d="M188.9,24.4h2.9l3.3,10.7h-2.6l-0.7-2.5h-3.3l-0.7,2.5h-2.5L188.9,24.4z M189.2,30.6h2.3l-0.2-1
			c-0.3-1.1-0.6-2.3-0.9-3.4h-0.1c-0.3,1.1-0.5,2.4-0.8,3.4L189.2,30.6z"/>
		<path class="st0" d="M196.3,26.9h2l0.2,0.8h0.1c0.6-0.6,1.5-1,2.3-1c2,0,3.2,1.6,3.2,4.1c0,2.8-1.7,4.4-3.4,4.4
			c-0.7,0-1.4-0.3-1.9-0.9l0.1,1.3v2.4h-2.4V26.9z M201.6,30.9c0-1.5-0.4-2.2-1.4-2.2c-0.5,0-0.9,0.2-1.4,0.7v3.3
			c0.4,0.4,0.9,0.5,1.3,0.5C200.9,33.3,201.6,32.6,201.6,30.9z"/>
		<path class="st0" d="M205.7,26.9h2l0.2,0.8h0.1c0.6-0.6,1.5-1,2.3-1c2,0,3.2,1.6,3.2,4.1c0,2.8-1.7,4.4-3.4,4.4
			c-0.7,0-1.4-0.3-1.9-0.9l0.1,1.3v2.4h-2.4V26.9z M210.9,30.9c0-1.5-0.4-2.2-1.4-2.2c-0.5,0-0.9,0.2-1.4,0.7v3.3
			c0.4,0.4,0.9,0.5,1.3,0.5C210.3,33.3,210.9,32.6,210.9,30.9z"/>
		<path class="st0" d="M215.1,32.6v-9h2.4v9.1c0,0.5,0.2,0.7,0.4,0.7c0.1,0,0.2,0,0.3,0l0.3,1.8c-0.3,0.1-0.7,0.2-1.2,0.2
			C215.6,35.3,215.1,34.2,215.1,32.6z"/>
		<path class="st0" d="M219.6,24.5c0-0.7,0.6-1.2,1.4-1.2c0.8,0,1.4,0.5,1.4,1.2s-0.6,1.3-1.4,1.3C220.2,25.7,219.6,25.2,219.6,24.5
			z M219.8,26.9h2.4v8.1h-2.4V26.9z"/>
		<path class="st0" d="M223.8,31c0-2.7,2-4.3,4.2-4.3c1,0,1.8,0.4,2.4,0.9l-1.1,1.6c-0.4-0.3-0.7-0.5-1.1-0.5
			c-1.2,0-1.9,0.9-1.9,2.3c0,1.4,0.8,2.3,1.8,2.3c0.5,0,1-0.3,1.5-0.6l1,1.6c-0.8,0.7-1.8,1-2.7,1C225.5,35.3,223.8,33.7,223.8,31z"
			/>
		<path class="st0" d="M231.4,32.8c0-1.7,1.4-2.6,4.6-3c0-0.7-0.4-1.2-1.3-1.2c-0.7,0-1.4,0.3-2.1,0.7l-0.9-1.6
			c1-0.6,2.2-1.1,3.5-1.1c2.1,0,3.2,1.2,3.2,3.7v4.7h-2l-0.2-0.8h-0.1c-0.7,0.6-1.4,1-2.4,1C232.4,35.3,231.4,34.2,231.4,32.8z
			 M236,32.7v-1.4c-1.7,0.2-2.3,0.7-2.3,1.3c0,0.5,0.4,0.8,0.9,0.8C235.2,33.4,235.6,33.1,236,32.7z"/>
		<path class="st0" d="M240.7,32.1v-3.3h-1.1V27l1.2-0.1l0.3-2.2h2v2.2h2v1.9h-2v3.3c0,0.9,0.4,1.3,1,1.3c0.3,0,0.6-0.1,0.8-0.2
			l0.4,1.8c-0.4,0.1-1,0.3-1.8,0.3C241.4,35.3,240.7,34,240.7,32.1z"/>
		<path class="st0" d="M246.4,24.5c0-0.7,0.6-1.2,1.4-1.2c0.8,0,1.4,0.5,1.4,1.2s-0.6,1.3-1.4,1.3C247,25.7,246.4,25.2,246.4,24.5z
			 M246.6,26.9h2.4v8.1h-2.4V26.9z"/>
		<path class="st0" d="M250.6,31c0-2.7,1.9-4.3,4-4.3c2,0,4,1.6,4,4.3c0,2.7-1.9,4.3-4,4.3C252.5,35.3,250.6,33.7,250.6,31z
			 M256.1,31c0-1.4-0.5-2.3-1.5-2.3c-1,0-1.5,0.9-1.5,2.3c0,1.4,0.5,2.3,1.5,2.3C255.6,33.3,256.1,32.4,256.1,31z"/>
		<path class="st0" d="M260.2,26.9h2l0.2,1h0.1c0.7-0.7,1.5-1.2,2.6-1.2c1.8,0,2.5,1.2,2.5,3.3v5.1h-2.4v-4.7c0-1.2-0.3-1.5-1-1.5
			c-0.6,0-1,0.3-1.5,0.8v5.5h-2.4V26.9z"/>
		<path class="st0" d="M268.8,34.1l1.1-1.5c0.7,0.6,1.4,0.9,2.1,0.9c0.7,0,1-0.3,1-0.7c0-0.5-0.8-0.8-1.7-1.1c-1-0.4-2.1-1-2.1-2.4
			c0-1.5,1.2-2.5,3.1-2.5c1.2,0,2.2,0.5,2.9,1l-1.1,1.4c-0.6-0.4-1.1-0.7-1.7-0.7c-0.6,0-0.9,0.2-0.9,0.6c0,0.5,0.8,0.7,1.6,1
			c1,0.4,2.2,1,2.2,2.4c0,1.5-1.2,2.6-3.3,2.6C270.8,35.3,269.6,34.8,268.8,34.1z"/>
		<path class="st0" d="M62.7,49.1v-2.8h0.9v2.8c0,1.1,0.4,1.4,1,1.4c0.6,0,1-0.4,1-1.4v-2.8h0.8v2.8c0,1.6-0.7,2.3-1.9,2.3
			C63.4,51.4,62.7,50.8,62.7,49.1z"/>
		<path class="st0" d="M67.9,46.4h0.9l1.5,2.8l0.5,1h0c0-0.5-0.1-1.1-0.1-1.7v-2.1h0.8v4.9h-0.9l-1.5-2.8l-0.5-1h0
			c0,0.5,0.1,1.1,0.1,1.7v2.2h-0.8V46.4z"/>
		<path class="st0" d="M73.1,46.4H74v4.9h-0.9V46.4z"/>
		<path class="st0" d="M75,46.4h0.9l0.7,2.5c0.2,0.6,0.3,1,0.4,1.6h0c0.2-0.6,0.3-1,0.4-1.6l0.7-2.5h0.9l-1.5,4.9h-1L75,46.4z"/>
		<path class="st0" d="M80,46.4h3v0.7h-2.1v1.3h1.8v0.7h-1.8v1.5h2.2v0.7H80V46.4z"/>
		<path class="st0" d="M84.3,46.4H86c1,0,1.8,0.4,1.8,1.5c0,0.8-0.4,1.2-1,1.4l1.2,2.1h-1L86,49.4h-0.8v1.9h-0.9V46.4z M85.9,48.7
			c0.7,0,1-0.3,1-0.8c0-0.6-0.4-0.8-1-0.8h-0.7v1.6H85.9z"/>
		<path class="st0" d="M88.7,50.7l0.5-0.6c0.4,0.3,0.8,0.6,1.3,0.6c0.6,0,0.9-0.2,0.9-0.6c0-0.4-0.3-0.5-0.8-0.7L90,49
			c-0.5-0.2-1-0.6-1-1.3c0-0.8,0.7-1.4,1.7-1.4c0.6,0,1.1,0.2,1.5,0.6l-0.4,0.6c-0.3-0.3-0.6-0.4-1.1-0.4c-0.5,0-0.8,0.2-0.8,0.6
			c0,0.4,0.4,0.5,0.8,0.7l0.7,0.3c0.6,0.2,1,0.6,1,1.3c0,0.8-0.7,1.5-1.8,1.5C89.9,51.4,89.2,51.1,88.7,50.7z"/>
		<path class="st0" d="M93.5,46.4h0.9v4.9h-0.9V46.4z"/>
		<path class="st0" d="M96.9,47.1h-1.4v-0.7h3.7v0.7h-1.4v4.2h-0.9V47.1z"/>
		<path class="st0" d="M101.4,49.5l-1.5-3.1h0.9l0.5,1.3c0.1,0.4,0.3,0.7,0.4,1.1h0c0.2-0.4,0.3-0.7,0.5-1.1l0.5-1.3h0.9l-1.5,3.1
			v1.8h-0.9V49.5z"/>
		<path class="st0" d="M105.9,48.8c0-1.6,0.9-2.5,2.2-2.5c1.3,0,2.2,0.9,2.2,2.5c0,1.6-0.9,2.6-2.2,2.6
			C106.8,51.4,105.9,50.4,105.9,48.8z M109.3,48.8c0-1.1-0.5-1.8-1.3-1.8c-0.8,0-1.3,0.7-1.3,1.8c0,1.1,0.5,1.8,1.3,1.8
			C108.9,50.6,109.3,49.9,109.3,48.8z"/>
		<path class="st0" d="M111.5,46.4h3v0.7h-2.1v1.4h1.8v0.7h-1.8v2.1h-0.9V46.4z"/>
		<path class="st0" d="M117.2,46.4h0.9v4.9h-0.9V46.4z"/>
		<path class="st0" d="M119.6,46.4h0.9v4.2h2.1v0.7h-2.9V46.4z"/>
		<path class="st0" d="M123.6,46.4h0.9v4.2h2.1v0.7h-2.9V46.4z"/>
		<path class="st0" d="M127.7,46.4h0.9v4.9h-0.9V46.4z"/>
		<path class="st0" d="M130,46.4h0.9l1.5,2.8l0.5,1h0c0-0.5-0.1-1.1-0.1-1.7v-2.1h0.8v4.9h-0.9l-1.5-2.8l-0.5-1h0
			c0,0.5,0.1,1.1,0.1,1.7v2.2H130V46.4z"/>
		<path class="st0" d="M135,48.8c0-1.6,0.9-2.5,2.2-2.5c1.3,0,2.2,0.9,2.2,2.5c0,1.6-0.9,2.6-2.2,2.6C135.9,51.4,135,50.4,135,48.8z
			 M138.5,48.8c0-1.1-0.5-1.8-1.3-1.8c-0.8,0-1.3,0.7-1.3,1.8c0,1.1,0.5,1.8,1.3,1.8C138,50.6,138.5,49.9,138.5,48.8z"/>
		<path class="st0" d="M140.7,46.4h0.9v4.9h-0.9V46.4z"/>
		<path class="st0" d="M142.7,50.7l0.5-0.6c0.4,0.3,0.8,0.6,1.3,0.6c0.6,0,0.9-0.2,0.9-0.6c0-0.4-0.3-0.5-0.8-0.7l-0.7-0.3
			c-0.5-0.2-1-0.6-1-1.3c0-0.8,0.7-1.4,1.7-1.4c0.6,0,1.1,0.2,1.5,0.6l-0.4,0.6c-0.3-0.3-0.6-0.4-1.1-0.4c-0.5,0-0.8,0.2-0.8,0.6
			c0,0.4,0.4,0.5,0.8,0.7l0.7,0.3c0.6,0.2,1,0.6,1,1.3c0,0.8-0.7,1.5-1.8,1.5C143.8,51.4,143.2,51.1,142.7,50.7z"/>
		<path class="st0" d="M148.9,49.1v-2.8h0.9v2.8c0,1.1,0.4,1.4,1,1.4c0.6,0,1-0.4,1-1.4v-2.8h0.8v2.8c0,1.6-0.7,2.3-1.9,2.3
			C149.7,51.4,148.9,50.8,148.9,49.1z"/>
		<path class="st0" d="M154.2,46.4h1.7c1,0,1.8,0.4,1.8,1.5c0,0.8-0.4,1.2-1,1.4l1.2,2.1h-1l-1.1-1.9h-0.8v1.9h-0.9V46.4z
			 M155.8,48.7c0.7,0,1-0.3,1-0.8c0-0.6-0.4-0.8-1-0.8h-0.7v1.6H155.8z"/>
		<path class="st0" d="M159,46.4h1.6c1,0,1.8,0.3,1.8,1.2c0,0.5-0.3,0.9-0.7,1.1v0c0.5,0.1,0.9,0.5,0.9,1.2c0,1-0.8,1.5-1.9,1.5H159
			V46.4z M160.5,48.4c0.7,0,1-0.3,1-0.7c0-0.5-0.3-0.7-1-0.7h-0.6v1.4H160.5z M160.6,50.6c0.7,0,1.1-0.3,1.1-0.8
			c0-0.5-0.4-0.7-1.1-0.7h-0.7v1.6H160.6z"/>
		<path class="st0" d="M164.8,46.4h1l1.6,4.9h-0.9l-0.4-1.3h-1.7l-0.4,1.3h-0.9L164.8,46.4z M164.7,49.3h1.3l-0.2-0.6
			c-0.2-0.5-0.3-1.1-0.4-1.6h0c-0.1,0.6-0.3,1.1-0.4,1.6L164.7,49.3z"/>
		<path class="st0" d="M168.4,46.4h0.9l1.5,2.8l0.5,1h0c0-0.5-0.1-1.1-0.1-1.7v-2.1h0.8v4.9h-0.9l-1.5-2.8l-0.5-1h0
			c0,0.5,0.1,1.1,0.1,1.7v2.2h-0.8V46.4z"/>
		<path class="st0" d="M174.7,46.4h1l1.6,4.9h-0.9L176,50h-1.7l-0.4,1.3h-0.9L174.7,46.4z M174.5,49.3h1.3l-0.2-0.6
			c-0.2-0.5-0.3-1.1-0.4-1.6h0c-0.1,0.6-0.3,1.1-0.4,1.6L174.5,49.3z"/>
		<path class="st0" d="M178,49.1h1.8v0.6H178V49.1z"/>
		<path class="st0" d="M181,48.8c0-1.6,1-2.6,2.3-2.6c0.6,0,1.1,0.3,1.4,0.6l-0.5,0.6c-0.3-0.3-0.6-0.4-0.9-0.4
			c-0.8,0-1.4,0.7-1.4,1.8c0,1.1,0.5,1.8,1.4,1.8c0.4,0,0.8-0.2,1.1-0.5l0.5,0.6c-0.4,0.5-0.9,0.7-1.6,0.7
			C181.9,51.4,181,50.5,181,48.8z"/>
		<path class="st0" d="M185.8,46.4h0.9v2h2v-2h0.9v4.9h-0.9v-2.2h-2v2.2h-0.9V46.4z"/>
		<path class="st0" d="M192.1,46.4h1l1.6,4.9h-0.9l-0.4-1.3h-1.7l-0.4,1.3h-0.9L192.1,46.4z M192,49.3h1.3l-0.2-0.6
			c-0.2-0.5-0.3-1.1-0.4-1.6h0c-0.1,0.6-0.3,1.1-0.4,1.6L192,49.3z"/>
		<path class="st0" d="M195.7,46.4h1l0.9,2.4c0.1,0.3,0.2,0.6,0.3,1h0c0.1-0.3,0.2-0.7,0.3-1l0.9-2.4h1v4.9h-0.8V49
			c0-0.5,0.1-1.1,0.1-1.6h0l-0.4,1.1l-0.8,2.2h-0.5l-0.8-2.2l-0.4-1.1h0c0,0.5,0.1,1.1,0.1,1.6v2.3h-0.8V46.4z"/>
		<path class="st0" d="M201.6,46.4h1.6c1.1,0,1.9,0.4,1.9,1.5c0,1.1-0.8,1.6-1.9,1.6h-0.7v1.8h-0.9V46.4z M203.2,48.8
			c0.7,0,1.1-0.3,1.1-0.9c0-0.6-0.4-0.8-1.1-0.8h-0.6v1.7H203.2z"/>
		<path class="st0" d="M207.1,46.4h1l1.6,4.9h-0.9l-0.4-1.3h-1.7l-0.4,1.3h-0.9L207.1,46.4z M206.9,49.3h1.3l-0.2-0.6
			c-0.2-0.5-0.3-1.1-0.4-1.6h0c-0.1,0.6-0.3,1.1-0.4,1.6L206.9,49.3z"/>
		<path class="st0" d="M210.7,46.4h0.9v4.9h-0.9V46.4z"/>
		<path class="st0" d="M212.8,48.8c0-1.6,1-2.6,2.3-2.6c0.7,0,1.2,0.3,1.5,0.6l-0.5,0.6c-0.2-0.2-0.5-0.4-1-0.4
			c-0.9,0-1.5,0.7-1.5,1.8c0,1.1,0.5,1.8,1.5,1.8c0.3,0,0.6-0.1,0.7-0.2v-1.1H215v-0.7h1.7v2.2c-0.3,0.3-0.9,0.6-1.6,0.6
			C213.8,51.4,212.8,50.5,212.8,48.8z"/>
		<path class="st0" d="M218.1,46.4h0.9l1.5,2.8l0.5,1h0c0-0.5-0.1-1.1-0.1-1.7v-2.1h0.8v4.9h-0.9l-1.5-2.8l-0.5-1h0
			c0,0.5,0.1,1.1,0.1,1.7v2.2h-0.8V46.4z"/>
	</g>
</g>
</svg>
